HIERARCHY
ROOT joint_Root
{
	OFFSET 0.0 0.0 0.0
	CHANNELS 6 Xposition Yposition Zposition Zrotation Xrotation Yrotation 
	JOINT Hips
	{
		OFFSET 4.5925 91.4895 -427.239
		CHANNELS 6 Xposition Yposition Zposition Zrotation Xrotation Yrotation 
		JOINT Spine
		{
			OFFSET 15.7357 0.0 0.0
			CHANNELS 6 Xposition Yposition Zposition Zrotation Xrotation Yrotation 
			JOINT Chest
			{
				OFFSET 8.98455 -0.406207 0.0
				CHANNELS 6 Xposition Yposition Zposition Zrotation Xrotation Yrotation 
				JOINT Neck
				{
					OFFSET 16.3773 0.0 0.0
					CHANNELS 6 Xposition Yposition Zposition Zrotation Xrotation Yrotation 
					JOINT Head
					{
						OFFSET 6.45672 0.0 0.0
						CHANNELS 6 Xposition Yposition Zposition Zrotation Xrotation Yrotation 
						End Site
						{
							OFFSET 0.0 0.0 0.0
						}
					}
				}
				JOINT Shoulder_L
				{
					OFFSET 12.9942 -0.242716 4.98039
					CHANNELS 6 Xposition Yposition Zposition Zrotation Xrotation Yrotation 
					JOINT UpperArm_L
					{
						OFFSET 5.34809 0.0 0.0
						CHANNELS 6 Xposition Yposition Zposition Zrotation Xrotation Yrotation 
						JOINT LowerArm_L
						{
							OFFSET 24.3286 1.87007e-05 0.0
							CHANNELS 6 Xposition Yposition Zposition Zrotation Xrotation Yrotation 
							JOINT Hand_L
							{
								OFFSET 22.2916 0.0 0.0
								CHANNELS 6 Xposition Yposition Zposition Zrotation Xrotation Yrotation 
								End Site
								{
									OFFSET 0.0 0.0 0.0
								}
							}
						}
					}
				}
				JOINT Shoulder_R
				{
					OFFSET 12.9945 -0.242716 -4.98039
					CHANNELS 6 Xposition Yposition Zposition Zrotation Xrotation Yrotation 
					JOINT UpperArm_R
					{
						OFFSET -5.34813 0.0 0.0
						CHANNELS 6 Xposition Yposition Zposition Zrotation Xrotation Yrotation 
						JOINT LowerArm_R
						{
							OFFSET -24.3289 0.000322201 0.0
							CHANNELS 6 Xposition Yposition Zposition Zrotation Xrotation Yrotation 
							JOINT Hand_R
							{
								OFFSET -22.2915 -0.000108084 0.0
								CHANNELS 6 Xposition Yposition Zposition Zrotation Xrotation Yrotation 
								End Site
								{
									OFFSET 0.0 0.0 0.0
								}
							}
						}
					}
				}
			}
		}
		JOINT UpperLeg_L
		{
			OFFSET -2.19248 -6.46944 0.0
			CHANNELS 6 Xposition Yposition Zposition Zrotation Xrotation Yrotation 
			JOINT LowerLeg_L
			{
				OFFSET 39.0811 0.0 -1.23785e-05
				CHANNELS 6 Xposition Yposition Zposition Zrotation Xrotation Yrotation 
				JOINT Foot_L
				{
					OFFSET 40.9854 0.0 -1.26872e-05
					CHANNELS 6 Xposition Yposition Zposition Zrotation Xrotation Yrotation 
					JOINT Toes_L
					{
						OFFSET 11.7543 0.0 0.0
						CHANNELS 6 Xposition Yposition Zposition Zrotation Xrotation Yrotation 
						End Site
						{
							OFFSET 0.0 0.0 0.0
						}
					}
				}
			}
		}
		JOINT UpperLeg_R
		{
			OFFSET -2.19251 6.46944 0.0
			CHANNELS 6 Xposition Yposition Zposition Zrotation Xrotation Yrotation 
			JOINT LowerLeg_R
			{
				OFFSET -39.0811 -0.00228153 -0.0401928
				CHANNELS 6 Xposition Yposition Zposition Zrotation Xrotation Yrotation 
				JOINT Foot_R
				{
					OFFSET -40.9854 0.0 0.0
					CHANNELS 6 Xposition Yposition Zposition Zrotation Xrotation Yrotation 
					JOINT Toes_R
					{
						OFFSET -11.7543 0.0 0.0
						CHANNELS 6 Xposition Yposition Zposition Zrotation Xrotation Yrotation 
						End Site
						{
							OFFSET 0.0 0.0 0.0
						}
					}
				}
			}
		}
	}
}
MOTION
Frames:	4
Frame Time:	0.0333333
0.000000 0.000000 0.000000 0.000000 0.000000 -0.000000 134.975000 89.107100 -44.995800 89.172700 -4.514310 5.793060 15.735700 0.000005 -0.000001 86.619500 83.496100 -86.500300 8.984550 -0.406207 -0.000000 5.220270 -0.768030 0.273134 16.377300 -0.000001 -0.000001 0.682241 -3.593830 -1.598060 6.456720 -0.000001 -0.000000 -9.277280 -2.432770 -8.642670 12.994200 -0.242716 4.980390 -91.612800 5.553300 -73.777800 5.348090 -0.000007 -0.000001 -58.897500 33.117300 -20.460100 24.328600 0.000019 0.000005 7.022300 19.033700 -20.691700 22.291600 -0.000001 0.000005 13.365600 5.242410 1.631970 12.994500 -0.242716 -4.980390 88.609400 9.232200 -81.396000 -5.348130 -0.000001 -0.000004 -69.800900 28.233700 -4.398840 -24.328900 0.000322 -0.000009 1.696490 11.081900 -8.764810 -22.291500 -0.000108 -0.000004 11.020600 5.275340 0.755189 -2.192480 -6.469440 -0.000000 178.928000 -5.765840 -3.092350 39.081100 -0.000007 -0.000012 0.029736 -0.040947 35.985900 40.985400 -0.000006 -0.000013 6.990060 -0.494636 -77.728300 11.754300 -0.000000 0.000003 -1.867500 -2.513540 -15.074700 -2.192510 6.469440 -0.000001 175.065000 11.231800 164.686000 -39.081100 -0.002282 -0.040193 0.147500 -0.048735 71.351200 -40.985400 0.000008 0.000006 4.848760 -4.311010 -52.415000 -11.754300 -0.000006 -0.000006 -0.023341 -0.185137 -24.144000
0.000000 0.000000 0.000000 0.000000 0.000000 -0.000000 134.974000 89.712600 -42.900600 88.832800 -3.143000 4.763690 15.735700 0.000005 -0.000001 82.534200 83.775600 -82.183800 8.984550 -0.406207 -0.000000 4.583710 -1.624370 0.765135 16.377300 -0.000001 -0.000001 0.705929 -3.550690 -1.780850 6.456720 -0.000001 -0.000000 -8.667050 -1.948050 -8.505300 12.994200 -0.242716 4.980390 -91.404200 4.971670 -74.207100 5.348090 -0.000007 -0.000001 -57.011100 33.725000 -24.999800 24.328600 0.000019 0.000005 7.765120 18.544000 -23.209100 22.291600 -0.000001 0.000005 13.252900 5.241770 1.649100 12.994500 -0.242716 -4.980390 88.512000 9.191850 -80.763600 -5.348130 -0.000001 -0.000004 -69.902100 26.146700 -1.821190 -24.328900 0.000322 -0.000009 1.514150 10.197100 -8.498370 -22.291500 -0.000108 -0.000004 10.915400 5.281110 0.595776 -2.192480 -6.469440 -0.000000 179.414000 -5.653580 -1.399030 39.081100 -0.000007 -0.000012 0.038757 -0.059555 33.054400 40.985400 -0.000006 -0.000013 7.325530 0.863896 -76.055800 11.754300 -0.000000 0.000003 -1.851850 -2.470440 -16.645300 -2.192510 6.469440 -0.000001 176.838000 11.080600 161.629000 -39.081100 -0.002282 -0.040193 0.104426 -0.042585 67.195100 -40.985400 0.000008 0.000006 5.415160 -3.718150 -56.455700 -11.754300 -0.000006 -0.000006 -0.022004 -0.178146 -23.855500
0.000000 0.000000 0.000000 0.000000 0.000000 -0.000000 134.879000 90.186500 -40.826500 88.556200 -1.781600 3.875030 15.735700 0.000005 -0.000001 78.128300 83.937000 -77.590400 8.984550 -0.406207 -0.000000 4.115920 -2.507920 1.164770 16.377300 -0.000001 -0.000001 0.545551 -3.520280 -1.591950 6.456720 -0.000001 -0.000000 -8.049290 -1.489230 -7.888430 12.994200 -0.242716 4.980390 -91.291600 4.719400 -74.675100 5.348090 -0.000007 -0.000001 -55.041900 33.673000 -28.760800 24.328600 0.000019 0.000005 8.268050 17.123100 -26.269900 22.291600 -0.000001 0.000005 13.072000 5.243630 1.600440 12.994500 -0.242716 -4.980390 88.383200 9.335460 -80.129100 -5.348130 -0.000001 -0.000004 -69.395100 25.248100 0.510781 -24.328900 0.000322 -0.000009 1.480760 8.843980 -9.552200 -22.291500 -0.000108 -0.000004 10.978800 5.294770 0.218951 -2.192480 -6.469440 -0.000000 179.977000 -5.286250 0.048106 39.081100 -0.000007 -0.000012 0.029036 -0.048535 30.889600 40.985400 -0.000006 -0.000013 7.328780 2.162420 -74.724600 11.754300 -0.000000 0.000003 -1.751040 -2.239180 -16.951800 -2.192510 6.469440 -0.000001 178.427000 10.613400 159.584000 -39.081100 -0.002282 -0.040193 0.071797 -0.038858 60.470300 -40.985400 0.000008 0.000006 5.236630 -2.261750 -59.324200 -11.754300 -0.000006 -0.000006 -0.022955 -0.183139 -24.061500
0.000000 0.000000 0.000000 0.000000 0.000000 -0.000000 134.702000 90.417300 -38.750700 88.488500 -0.498412 2.905810 15.735700 0.000005 -0.000001 73.647800 84.005600 -73.015300 8.984550 -0.406207 -0.000000 3.762390 -3.392910 1.375340 16.377300 -0.000001 -0.000001 0.125658 -3.505590 -1.157420 6.456720 -0.000001 -0.000000 -7.673980 -1.026860 -6.995580 12.994200 -0.242716 4.980390 -91.192500 4.517760 -75.197000 5.348090 -0.000007 -0.000001 -53.475100 32.952300 -31.700000 24.328600 0.000019 0.000005 8.881580 15.911500 -29.684500 22.291600 -0.000001 0.000005 13.217400 5.260060 1.165970 12.994500 -0.242716 -4.980390 88.256500 9.491160 -79.541400 -5.348130 -0.000001 -0.000004 -68.741300 25.117100 2.158000 -24.328900 0.000322 -0.000009 1.532070 7.941300 -10.964800 -22.291500 -0.000108 -0.000004 11.599700 5.325760 -0.659999 -2.192480 -6.469440 -0.000000 -179.564000 -4.982470 0.920194 39.081100 -0.000007 -0.000012 0.022658 -0.039739 29.690000 40.985400 -0.000006 -0.000013 7.167230 3.486860 -73.884300 11.754300 -0.000000 0.000003 -1.162430 -1.434690 -17.337200 -2.192510 6.469440 -0.000001 179.587000 10.498400 157.951000 -39.081100 -0.002282 -0.040193 0.049906 -0.036100 52.275700 -40.985400 0.000008 0.000006 3.865430 -0.153526 -60.175400 -11.754300 -0.000006 -0.000006 -0.022458 -0.180542 -23.954300
